:SAMPLES-PER-SECOND 30
:FULLY-SPECIFIED
:DEGREES
55
root  -15.5291 38.824 -17.4551 169.274 -65.2108 -172.162
RightUpLeg  13.89 -19.3644 -1.51542
RightLeg  18.7883 -5.40472 1.61954
RightFoot  -21.0054 0.110839 2.92087
RightToes  0.000482159 0.542163 -0.142577
Spine  12.9087 -0.507904 8.76809
Spine1  16.0502 1.04478 -1.54017
HEad  11.2929 10.3071 -9.53597
LeftShoulder1  6.1316 -10.026 -39.1065
LeftArm  -8.08425 15.8564 -27.3538
LeftForeArm  22.2689 -14.6942 -4.99767
LeftHand  -0.25398 0.0180481 5.50724
RightShoulder  4.51636 8.80171 30.7489
RightArm  -3.02459 9.0878 34.752
RightForeArm  3.16642 24.1479 5.0012
RightHand  -1.4823 4.85807 -17.0349
LeftUpLeg  -18.4842 5.30429 -0.999833
LeftLeg  -0.755649 33.2067 -8.76082
LeftFoot  -0.0249783 -0.046911 0.426593
LeftToes  1.06248e-005 4.65854e-005 -8.185e-006
56
root  -16.8414 38.5542 -18.3391 171.516 -65.825 -175.053
RightUpLeg  15.6582 -24.4926 -5.03204
RightLeg  22.9163 1.0406 0.584576
RightFoot  -21.641 0.467923 6.83987
RightToes  0.000482159 0.542163 -0.142577
Spine  13.6285 0.0666036 6.29719
Spine1  15.9741 1.48206 -1.52587
HEad  11.4347 9.90077 -8.73379
LeftShoulder1  6.18867 -10.1011 -39.2681
LeftArm  -9.29913 17.1651 -26.3113
LeftForeArm  22.3599 -13.6235 -4.98537
LeftHand  -0.25398 0.0180481 5.50724
RightShoulder  4.72034 8.99916 31.8093
RightArm  -2.47879 7.84128 34.7938
RightForeArm  4.77686 23.5755 4.79775
RightHand  -1.40487 4.70138 -16.4159
LeftUpLeg  -21.2641 12.6075 -6.42884
LeftLeg  8.77624 22.6667 -1.97745
LeftFoot  1.0231 -0.748438 6.86757
LeftToes  1.06248e-005 4.65854e-005 -8.185e-006
57
root  -18.126 38.3709 -19.1392 174.558 -66.468 -178.953
RightUpLeg  14.3649 -22.1699 -6.85011
RightLeg  30.6025 0.629789 0.0631954
RightFoot  -18.281 0.606665 12.5324
RightToes  0.000482159 0.542163 -0.142577
Spine  14.9738 0.460522 3.92366
Spine1  15.7825 1.79811 -1.94467
HEad  11.3226 9.41106 -8.01646
LeftShoulder1  6.28118 -10.3107 -39.2508
LeftArm  -10.2877 17.8225 -25.6693
LeftForeArm  22.0039 -12.6122 -4.94974
LeftHand  -0.25398 0.0180481 5.50724
RightShoulder  4.91455 9.22625 32.6661
RightArm  -2.90566 6.5892 35.4536
RightForeArm  6.80203 22.7101 4.59542
RightHand  -1.39179 4.74935 -16.1947
LeftUpLeg  -23.631 20.463 -12.5877
LeftLeg  15.8194 12.7665 3.57572
LeftFoot  0.74951 -1.28024 12.04
LeftToes  1.06248e-005 4.65854e-005 -8.185e-006
58
root  -19.3316 38.3312 -19.8097 177.611 -67.244 177.345
RightUpLeg  9.2623 -19.2001 -8.01186
RightLeg  42.4459 -0.439969 -0.748397
RightFoot  -8.31575 -0.41961 15.0955
RightToes  0.000482159 0.542163 -0.142577
Spine  16.7847 0.459657 2.43001
Spine1  15.3462 1.90259 -2.73878
HEad  11.2355 9.03289 -7.91027
LeftShoulder1  6.37898 -10.5742 -39.1033
LeftArm  -11.3062 17.8549 -25.7033
LeftForeArm  21.57 -11.7832 -4.83449
LeftHand  -0.25398 0.0180481 5.50724
RightShoulder  4.96746 9.34776 32.7116
RightArm  -3.87556 5.62771 36.8445
RightForeArm  8.8151 21.188 4.49925
RightHand  -1.33968 4.523 -15.9413
LeftUpLeg  -23.4677 19.8594 -13.7732
LeftLeg  20.2914 13.1393 5.7609
LeftFoot  -1.14352 -1.21403 13.5671
LeftToes  1.06248e-005 4.65854e-005 -8.185e-006
59
root  -20.3907 38.3065 -20.3577 -178.773 -68.069 173.434
RightUpLeg  1.24003 -15.9846 -8.68137
RightLeg  55.2439 -0.71148 -1.48572
RightFoot  3.90293 -1.62175 12.4337
RightToes  0.000482159 0.542163 -0.142577
Spine  18.9874 0.28155 1.13702
Spine1  14.8311 1.74322 -3.43916
HEad  11.0431 9.01896 -8.6724
LeftShoulder1  6.52908 -10.8564 -39.2516
LeftArm  -12.4751 17.4018 -26.1248
LeftForeArm  21.2946 -11.7781 -4.54985
LeftHand  -0.25398 0.0180481 5.50724
RightShoulder  4.96189 9.44956 32.3644
RightArm  -4.54135 5.20548 37.8309
RightForeArm  10.2604 19.6194 4.61231
RightHand  -1.1935 3.90926 -15.1416
LeftUpLeg  -22.7259 19.6125 -14.5796
LeftLeg  23.283 12.8149 6.29192
LeftFoot  -3.76034 -0.828781 12.7839
LeftToes  1.06248e-005 4.65854e-005 -8.185e-006
60
root  -21.341 38.2668 -20.8539 -174.984 -69.1511 169.535
RightUpLeg  -6.96127 -12.8174 -9.12635
RightLeg  64.908 -0.325345 -1.3823
RightFoot  10.1588 -1.50648 8.17879
RightToes  0.000482159 0.542163 -0.142577
Spine  21.417 0.000182505 -0.114539
Spine1  14.5141 1.21897 -3.65458
HEad  10.2675 9.27958 -9.833
LeftShoulder1  6.72407 -11.1843 -39.5513
LeftArm  -13.3956 16.4158 -26.8307
LeftForeArm  21.3618 -12.9571 -4.22927
LeftHand  -0.25398 0.0180481 5.50724
RightShoulder  5.04555 9.67748 32.3355
RightArm  -4.24754 5.53302 37.5575
RightForeArm  10.5067 18.7147 4.80527
RightHand  -1.07714 3.45081 -14.3906
LeftUpLeg  -21.9659 19.7933 -15.5304
LeftLeg  25.4256 11.5008 6.23985
LeftFoot  -5.99175 -0.535177 12.2082
LeftToes  1.06248e-005 4.65854e-005 -8.185e-006
61
root  -22.2859 38.381 -21.3483 -172.518 -70.888 167.064
RightUpLeg  -13.734 -10.6842 -9.37028
RightLeg  69.3604 -0.219577 -1.45031
RightFoot  9.48625 -0.971274 5.62264
RightToes  0.000482159 0.542163 -0.142577
Spine  23.8573 -0.613316 -0.349825
Spine1  14.4237 0.36615 -3.35774
HEad  8.83652 9.39395 -10.8237
LeftShoulder1  6.90204 -11.5859 -39.517
LeftArm  -13.2365 14.8109 -27.8849
LeftForeArm  21.9571 -15.2393 -4.01394
LeftHand  -0.25398 0.0180481 5.50724
RightShoulder  5.14882 9.9214 32.4105
RightArm  -3.50375 6.46958 36.6
RightForeArm  9.83396 18.4143 4.95908
RightHand  -1.11297 3.56434 -14.6632
LeftUpLeg  -20.3872 18.8689 -15.5271
LeftLeg  26.2948 11.0209 6.21136
LeftFoot  -7.42117 -0.364551 11.9073
LeftToes  1.06248e-005 4.65854e-005 -8.185e-006
62
root  -23.2106 38.6306 -21.8314 -171.143 -73.0378 165.876
RightUpLeg  -19.1418 -9.57782 -9.58668
RightLeg  68.3729 -0.54939 -2.27455
RightFoot  6.34998 -0.786428 5.34271
RightToes  0.000482159 0.542163 -0.142577
Spine  26.2401 -1.39721 0.346038
Spine1  14.4426 -0.503192 -2.77902
HEad  7.26897 9.04482 -11.57
LeftShoulder1  7.10823 -12.088 -39.3738
LeftArm  -11.7356 12.7933 -28.7679
LeftForeArm  23.1842 -18.671 -3.77297
LeftHand  -0.25398 0.0180481 5.50724
RightShoulder  5.09822 9.95963 31.9222
RightArm  -3.2512 7.62299 35.8965
RightForeArm  9.22931 18.1001 5.08987
RightHand  -1.2442 3.9658 -15.679
LeftUpLeg  -18.228 17.1171 -14.7625
LeftLeg  25.9564 10.8687 6.04886
LeftFoot  -8.45879 -0.221993 10.7835
LeftToes  1.06248e-005 4.65854e-005 -8.185e-006
63
root  -24.0968 38.8667 -22.3227 -169.638 -74.9474 164.769
RightUpLeg  -23.5175 -8.69817 -9.88606
RightLeg  63.0686 -1.52164 -3.79002
RightFoot  4.18099 -0.663704 5.06382
RightToes  0.000482159 0.542163 -0.142577
Spine  28.395 -1.91778 1.03896
Spine1  14.4079 -1.10527 -2.11531
HEad  5.91598 8.24182 -12.0632
LeftShoulder1  7.43845 -12.7033 -39.6647
LeftArm  -10.5682 10.7519 -28.738
LeftForeArm  25.7177 -23.3119 -3.70522
LeftHand  -0.25398 0.0180481 5.50724
RightShoulder  4.92839 9.82042 31.0382
RightArm  -3.7701 8.85724 35.4093
RightForeArm  9.29417 17.3743 5.26532
RightHand  -1.31808 4.17576 -16.2366
LeftUpLeg  -16.3368 15.5801 -13.9466
LeftLeg  25.4362 10.2566 5.61601
LeftFoot  -9.41753 -0.10009 9.36032
LeftToes  1.06248e-005 4.65854e-005 -8.185e-006
64
root  -24.9718 39.0578 -22.8444 -166.892 -76.5252 162.617
RightUpLeg  -26.4772 -7.8514 -10.3521
RightLeg  53.95 -3.47094 -5.47078
RightFoot  3.13385 -0.47191 3.88969
RightToes  0.000482159 0.542163 -0.142577
Spine  30.2192 -2.22582 1.36679
Spine1  14.3234 -1.48125 -1.64495
HEad  4.55104 7.23184 -12.0402
LeftShoulder1  7.78052 -13.3307 -39.9737
LeftArm  -11.5938 8.8559 -28.0606
LeftForeArm  29.8259 -28.5864 -4.54884
LeftHand  -0.25398 0.0180481 5.50724
RightShoulder  4.81616 9.71774 30.4706
RightArm  -4.80481 10.2594 34.6836
RightForeArm  9.78352 16.3846 5.47705
RightHand  -1.28839 4.11749 -15.9716
LeftUpLeg  -14.876 14.4604 -13.4239
LeftLeg  25.0089 9.55755 5.17323
LeftFoot  -10.167 -0.0293027 8.89428
LeftToes  1.06248e-005 4.65854e-005 -8.185e-006
65
root  -25.8746 39.1817 -23.4038 -162.131 -78.1553 158.744
RightUpLeg  -27.8401 -8.24084 -10.9614
RightLeg  41.387 -5.72331 -5.68028
RightFoot  2.76124 -0.50782 4.24805
RightToes  0.000482159 0.542163 -0.142577
Spine  31.6679 -2.69486 1.66654
Spine1  14.157 -1.84266 -1.68015
HEad  2.96895 6.2475 -11.5838
LeftShoulder1  7.90818 -13.8072 -39.4649
LeftArm  -12.6162 6.89491 -27.7626
LeftForeArm  31.9732 -33.4294 -5.57817
LeftHand  -0.25398 0.0180481 5.50724
RightShoulder  4.78014 9.70458 30.2302
RightArm  -5.92292 11.6633 33.8744
RightForeArm  9.84818 15.5703 5.64979
RightHand  -1.25333 4.01864 -15.7074
LeftUpLeg  -13.9431 12.9742 -13.1317
LeftLeg  24.9714 9.22171 5.00024
LeftFoot  -11.1313 0.0504094 8.72799
LeftToes  1.06248e-005 4.65854e-005 -8.185e-006
66
root  -26.8418 39.2354 -24.0061 -154.92 -80.0675 152.796
RightUpLeg  -28.1021 -11.6319 -10.7224
RightLeg  26.763 -6.00932 -3.7001
RightFoot  2.52488 -0.769202 6.47859
RightToes  0.000482159 0.542163 -0.142577
Spine  32.6797 -3.40165 2.36519
Spine1  13.8899 -2.27444 -1.85069
HEad  1.47335 5.18529 -11.3011
LeftShoulder1  7.85993 -14.1338 -38.3944
LeftArm  -13.0436 4.48766 -27.9418
LeftForeArm  31.1644 -36.6535 -6.45368
LeftHand  -0.25398 0.0180481 5.50724
RightShoulder  4.71335 9.68702 29.764
RightArm  -6.64661 12.691 33.2668
RightForeArm  8.85877 15.2645 5.7464
RightHand  -1.29008 4.07524 -16.0587
LeftUpLeg  -13.5972 10.5641 -12.7649
LeftLeg  25.5327 9.02523 5.01436
LeftFoot  -12.4708 0.14857 7.56778
LeftToes  1.06248e-005 4.65854e-005 -8.185e-006
